<svg xmlns="http://www.w3.org/2000/svg" xmlns:xlink="http://www.w3.org/1999/xlink" width="500" zoomAndPan="magnify" viewBox="0 0 375 374.999991" height="500" preserveAspectRatio="xMidYMid meet" version="1.0"><defs><g/></defs><path fill="#ecf0f1" d="M 364.152344 383.847656 L 13.195312 383.847656 C 0.964844 383.847656 -8.949219 373.933594 -8.949219 361.703125 L -8.949219 70.375 L 386.300781 70.375 L 386.300781 361.703125 C 386.300781 373.933594 376.382812 383.847656 364.152344 383.847656 Z M 364.152344 383.847656 " fill-opacity="1" fill-rule="nonzero"/><path fill="#687492" d="M 386.300781 70.375 L -8.949219 70.375 L -8.949219 10.746094 C -8.949219 -1.484375 0.964844 -11.402344 13.195312 -11.402344 L 364.152344 -11.402344 C 376.382812 -11.402344 386.300781 -1.484375 386.300781 10.746094 Z M 386.300781 70.375 " fill-opacity="1" fill-rule="nonzero"/><path fill="#e64c3c" d="M 18.308594 15.859375 L 45.566406 15.859375 L 45.566406 43.117188 L 18.308594 43.117188 Z M 18.308594 15.859375 " fill-opacity="1" fill-rule="nonzero"/><path fill="#f0c419" d="M 72.824219 15.859375 L 100.082031 15.859375 L 100.082031 43.117188 L 72.824219 43.117188 Z M 72.824219 15.859375 " fill-opacity="1" fill-rule="nonzero"/><path fill="#24ae5f" d="M 127.34375 15.859375 L 154.601562 15.859375 L 154.601562 43.117188 L 127.34375 43.117188 Z M 127.34375 15.859375 " fill-opacity="1" fill-rule="nonzero"/><path fill="#4482c3" d="M 236.375 356.589844 L 140.972656 356.589844 C 129.699219 356.589844 120.527344 347.417969 120.527344 336.148438 C 120.527344 324.875 129.699219 315.703125 140.972656 315.703125 L 236.375 315.703125 C 247.648438 315.703125 256.820312 324.875 256.820312 336.148438 C 256.820312 347.417969 247.648438 356.589844 236.375 356.589844 Z M 236.375 356.589844 " fill-opacity="1" fill-rule="nonzero"/><path fill="#bdc3c7" d="M 256.820312 268 L 120.527344 268 C 116.765625 268 113.710938 264.953125 113.710938 261.183594 C 113.710938 257.417969 116.765625 254.371094 120.527344 254.371094 L 256.820312 254.371094 C 260.582031 254.371094 263.636719 257.417969 263.636719 261.183594 C 263.636719 264.953125 260.582031 268 256.820312 268 Z M 256.820312 268 " fill-opacity="1" fill-rule="nonzero"/><path fill="#bdc3c7" d="M 290.894531 295.257812 L 86.453125 295.257812 C 82.691406 295.257812 79.640625 292.210938 79.640625 288.445312 C 79.640625 284.675781 82.691406 281.628906 86.453125 281.628906 L 290.894531 281.628906 C 294.65625 281.628906 297.707031 284.675781 297.707031 288.445312 C 297.707031 292.210938 294.65625 295.257812 290.894531 295.257812 Z M 290.894531 295.257812 " fill-opacity="1" fill-rule="nonzero"/><path fill="#e64c3c" d="M 93.269531 186.222656 C 92.375 186.222656 91.464844 186.054688 90.589844 185.671875 C 87.128906 184.1875 85.527344 180.179688 87.011719 176.730469 L 107.457031 129.027344 C 108.941406 125.566406 112.941406 123.953125 116.40625 125.449219 C 119.867188 126.9375 121.46875 130.945312 119.980469 134.390625 L 99.539062 182.09375 C 98.425781 184.675781 95.90625 186.222656 93.269531 186.222656 Z M 93.269531 186.222656 " fill-opacity="1" fill-rule="nonzero"/><path fill="#e64c3c" d="M 140.972656 186.222656 L 93.269531 186.222656 C 89.507812 186.222656 86.453125 183.179688 86.453125 179.410156 C 86.453125 175.640625 89.507812 172.59375 93.269531 172.59375 L 140.972656 172.59375 C 144.734375 172.59375 147.785156 175.640625 147.785156 179.410156 C 147.785156 183.179688 144.734375 186.222656 140.972656 186.222656 Z M 140.972656 186.222656 " fill-opacity="1" fill-rule="nonzero"/><path fill="#e64c3c" d="M 120.527344 213.484375 C 116.765625 213.484375 113.710938 210.4375 113.710938 206.667969 L 113.710938 165.78125 C 113.710938 162.011719 116.765625 158.964844 120.527344 158.964844 C 124.289062 158.964844 127.34375 162.011719 127.34375 165.78125 L 127.34375 206.667969 C 127.34375 210.4375 124.289062 213.484375 120.527344 213.484375 Z M 120.527344 213.484375 " fill-opacity="1" fill-rule="nonzero"/><path fill="#e64c3c" d="M 236.375 186.222656 C 235.484375 186.222656 234.570312 186.054688 233.699219 185.671875 C 230.238281 184.1875 228.636719 180.179688 230.121094 176.730469 L 250.566406 129.027344 C 252.050781 125.566406 256.058594 123.953125 259.511719 125.449219 C 262.972656 126.9375 264.574219 130.945312 263.089844 134.390625 L 242.644531 182.09375 C 241.535156 184.675781 239.015625 186.222656 236.375 186.222656 Z M 236.375 186.222656 " fill-opacity="1" fill-rule="nonzero"/><path fill="#e64c3c" d="M 284.078125 186.222656 L 236.375 186.222656 C 232.613281 186.222656 229.5625 183.179688 229.5625 179.410156 C 229.5625 175.640625 232.613281 172.59375 236.375 172.59375 L 284.078125 172.59375 C 287.839844 172.59375 290.894531 175.640625 290.894531 179.410156 C 290.894531 183.179688 287.839844 186.222656 284.078125 186.222656 Z M 284.078125 186.222656 " fill-opacity="1" fill-rule="nonzero"/><path fill="#e64c3c" d="M 263.636719 213.484375 C 259.875 213.484375 256.820312 210.4375 256.820312 206.667969 L 256.820312 165.78125 C 256.820312 162.011719 259.875 158.964844 263.636719 158.964844 C 267.398438 158.964844 270.449219 162.011719 270.449219 165.78125 L 270.449219 206.667969 C 270.449219 210.4375 267.398438 213.484375 263.636719 213.484375 Z M 263.636719 213.484375 " fill-opacity="1" fill-rule="nonzero"/><path fill="#e64c3c" d="M 188.675781 213.484375 C 173.640625 213.484375 161.414062 201.257812 161.414062 186.222656 L 161.414062 152.152344 C 161.414062 137.117188 173.640625 124.890625 188.675781 124.890625 C 203.707031 124.890625 215.933594 137.117188 215.933594 152.152344 L 215.933594 186.222656 C 215.933594 201.257812 203.707031 213.484375 188.675781 213.484375 Z M 188.675781 138.523438 C 181.15625 138.523438 175.042969 144.632812 175.042969 152.152344 L 175.042969 186.222656 C 175.042969 193.742188 181.15625 199.855469 188.675781 199.855469 C 196.191406 199.855469 202.304688 193.742188 202.304688 186.222656 L 202.304688 152.152344 C 202.304688 144.632812 196.191406 138.523438 188.675781 138.523438 Z M 188.675781 138.523438 " fill-opacity="1" fill-rule="nonzero"/><g fill="#ffffff" fill-opacity="1"><g transform="translate(129.093747, 341.999978)"><g><path d="M 4.796875 -9.28125 C 5.460938 -9.28125 6.03125 -9.15625 6.5 -8.90625 C 6.96875 -8.664062 7.320312 -8.328125 7.5625 -7.890625 C 7.800781 -7.453125 7.921875 -6.941406 7.921875 -6.359375 C 7.921875 -5.785156 7.800781 -5.28125 7.5625 -4.84375 C 7.320312 -4.40625 6.96875 -4.0625 6.5 -3.8125 C 6.03125 -3.570312 5.460938 -3.453125 4.796875 -3.453125 L 3.046875 -3.453125 L 3.046875 0 L 1.203125 0 L 1.203125 -9.28125 Z M 4.546875 -4.90625 C 5.566406 -4.90625 6.078125 -5.390625 6.078125 -6.359375 C 6.078125 -7.335938 5.566406 -7.828125 4.546875 -7.828125 L 3.046875 -7.828125 L 3.046875 -4.90625 Z M 4.546875 -4.90625 "/></g></g></g><g fill="#ffffff" fill-opacity="1"><g transform="translate(137.571667, 341.999978)"><g><path d="M 8.90625 0 L 6.96875 0 L 6.28125 -2.140625 L 2.71875 -2.140625 L 2.03125 0 L 0.140625 0 L 3.34375 -9.28125 L 5.703125 -9.28125 Z M 4.40625 -7.34375 L 3.21875 -3.6875 L 5.765625 -3.6875 L 4.578125 -7.34375 Z M 4.40625 -7.34375 "/></g></g></g><g fill="#ffffff" fill-opacity="1"><g transform="translate(146.614364, 341.999978)"><g><path d="M 4.5 0.140625 C 3.726562 0.140625 3.0625 -0.0351562 2.5 -0.390625 C 1.9375 -0.742188 1.5 -1.273438 1.1875 -1.984375 C 0.882812 -2.703125 0.734375 -3.585938 0.734375 -4.640625 C 0.734375 -5.703125 0.914062 -6.585938 1.28125 -7.296875 C 1.644531 -8.003906 2.15625 -8.53125 2.8125 -8.875 C 3.46875 -9.226562 4.226562 -9.40625 5.09375 -9.40625 C 5.976562 -9.40625 6.734375 -9.238281 7.359375 -8.90625 C 7.984375 -8.582031 8.425781 -8.097656 8.6875 -7.453125 L 7.34375 -6.640625 L 7.1875 -6.640625 C 7 -7.054688 6.726562 -7.359375 6.375 -7.546875 C 6.03125 -7.734375 5.601562 -7.828125 5.09375 -7.828125 C 4.289062 -7.828125 3.675781 -7.570312 3.25 -7.0625 C 2.832031 -6.5625 2.625 -5.753906 2.625 -4.640625 C 2.625 -3.515625 2.820312 -2.695312 3.21875 -2.1875 C 3.613281 -1.6875 4.195312 -1.4375 4.96875 -1.4375 C 5.632812 -1.4375 6.125 -1.585938 6.4375 -1.890625 C 6.757812 -2.191406 6.921875 -2.640625 6.921875 -3.234375 L 6.921875 -3.625 L 4.734375 -3.625 L 4.734375 -5.125 L 8.75 -5.125 L 8.75 0 L 7 0 L 7 -1.25 L 6.859375 -1.265625 C 6.671875 -0.816406 6.382812 -0.46875 6 -0.21875 C 5.613281 0.0195312 5.113281 0.140625 4.5 0.140625 Z M 4.5 0.140625 "/></g></g></g><g fill="#ffffff" fill-opacity="1"><g transform="translate(156.291637, 341.999978)"><g><path d="M 3.046875 -4.078125 L 3.046875 -1.53125 L 7.46875 -1.53125 L 7.46875 0 L 1.203125 0 L 1.203125 -9.28125 L 7.375 -9.28125 L 7.375 -7.75 L 3.046875 -7.75 L 3.046875 -5.578125 L 6.828125 -5.578125 L 6.828125 -4.078125 Z M 3.046875 -4.078125 "/></g></g></g><g fill="#ffffff" fill-opacity="1"><g transform="translate(167.33325, 341.999978)"><g><path d="M 2.984375 0 L 1.203125 0 L 1.203125 -9.28125 L 3.3125 -9.28125 L 7.03125 -3.296875 L 7.203125 -3.328125 L 7.203125 -9.28125 L 8.96875 -9.28125 L 8.96875 0 L 7.078125 0 L 3.140625 -6.390625 L 2.984375 -6.359375 Z M 2.984375 0 "/></g></g></g><g fill="#ffffff" fill-opacity="1"><g transform="translate(177.505491, 341.999978)"><g><path d="M 5.0625 0.140625 C 4.207031 0.140625 3.453125 -0.03125 2.796875 -0.375 C 2.148438 -0.726562 1.644531 -1.257812 1.28125 -1.96875 C 0.914062 -2.6875 0.734375 -3.578125 0.734375 -4.640625 C 0.734375 -5.703125 0.914062 -6.585938 1.28125 -7.296875 C 1.644531 -8.015625 2.148438 -8.546875 2.796875 -8.890625 C 3.453125 -9.234375 4.207031 -9.40625 5.0625 -9.40625 C 5.90625 -9.40625 6.648438 -9.234375 7.296875 -8.890625 C 7.953125 -8.546875 8.460938 -8.015625 8.828125 -7.296875 C 9.191406 -6.585938 9.375 -5.703125 9.375 -4.640625 C 9.375 -3.578125 9.191406 -2.6875 8.828125 -1.96875 C 8.460938 -1.257812 7.953125 -0.726562 7.296875 -0.375 C 6.648438 -0.03125 5.90625 0.140625 5.0625 0.140625 Z M 5.0625 -1.453125 C 5.84375 -1.453125 6.441406 -1.707031 6.859375 -2.21875 C 7.273438 -2.726562 7.484375 -3.535156 7.484375 -4.640625 C 7.484375 -5.742188 7.273438 -6.550781 6.859375 -7.0625 C 6.441406 -7.570312 5.84375 -7.828125 5.0625 -7.828125 C 4.269531 -7.828125 3.664062 -7.570312 3.25 -7.0625 C 2.832031 -6.550781 2.625 -5.742188 2.625 -4.640625 C 2.625 -3.535156 2.832031 -2.726562 3.25 -2.21875 C 3.664062 -1.707031 4.269531 -1.453125 5.0625 -1.453125 Z M 5.0625 -1.453125 "/></g></g></g><g fill="#ffffff" fill-opacity="1"><g transform="translate(187.614274, 341.999978)"><g><path d="M 7.4375 -9.28125 L 7.4375 -7.734375 L 4.765625 -7.734375 L 4.765625 0 L 2.9375 0 L 2.9375 -7.734375 L 0.25 -7.734375 L 0.25 -9.28125 Z M 7.4375 -9.28125 "/></g></g></g><g fill="#ffffff" fill-opacity="1"><g transform="translate(198.370323, 341.999978)"><g><path d="M 7.09375 -9.28125 L 7.09375 -7.75 L 3.046875 -7.75 L 3.046875 -5.28125 L 6.71875 -5.28125 L 6.71875 -3.765625 L 3.046875 -3.765625 L 3.046875 0 L 1.203125 0 L 1.203125 -9.28125 Z M 7.09375 -9.28125 "/></g></g></g><g fill="#ffffff" fill-opacity="1"><g transform="translate(205.870998, 341.999978)"><g><path d="M 5.0625 0.140625 C 4.207031 0.140625 3.453125 -0.03125 2.796875 -0.375 C 2.148438 -0.726562 1.644531 -1.257812 1.28125 -1.96875 C 0.914062 -2.6875 0.734375 -3.578125 0.734375 -4.640625 C 0.734375 -5.703125 0.914062 -6.585938 1.28125 -7.296875 C 1.644531 -8.015625 2.148438 -8.546875 2.796875 -8.890625 C 3.453125 -9.234375 4.207031 -9.40625 5.0625 -9.40625 C 5.90625 -9.40625 6.648438 -9.234375 7.296875 -8.890625 C 7.953125 -8.546875 8.460938 -8.015625 8.828125 -7.296875 C 9.191406 -6.585938 9.375 -5.703125 9.375 -4.640625 C 9.375 -3.578125 9.191406 -2.6875 8.828125 -1.96875 C 8.460938 -1.257812 7.953125 -0.726562 7.296875 -0.375 C 6.648438 -0.03125 5.90625 0.140625 5.0625 0.140625 Z M 5.0625 -1.453125 C 5.84375 -1.453125 6.441406 -1.707031 6.859375 -2.21875 C 7.273438 -2.726562 7.484375 -3.535156 7.484375 -4.640625 C 7.484375 -5.742188 7.273438 -6.550781 6.859375 -7.0625 C 6.441406 -7.570312 5.84375 -7.828125 5.0625 -7.828125 C 4.269531 -7.828125 3.664062 -7.570312 3.25 -7.0625 C 2.832031 -6.550781 2.625 -5.742188 2.625 -4.640625 C 2.625 -3.535156 2.832031 -2.726562 3.25 -2.21875 C 3.664062 -1.707031 4.269531 -1.453125 5.0625 -1.453125 Z M 5.0625 -1.453125 "/></g></g></g><g fill="#ffffff" fill-opacity="1"><g transform="translate(215.979781, 341.999978)"><g><path d="M 4.921875 0.140625 C 3.640625 0.140625 2.691406 -0.160156 2.078125 -0.765625 C 1.460938 -1.378906 1.15625 -2.285156 1.15625 -3.484375 L 1.15625 -9.28125 L 2.953125 -9.28125 L 2.953125 -3.484375 C 2.953125 -2.804688 3.113281 -2.296875 3.4375 -1.953125 C 3.757812 -1.617188 4.253906 -1.453125 4.921875 -1.453125 C 6.234375 -1.453125 6.890625 -2.128906 6.890625 -3.484375 L 6.890625 -9.28125 L 8.6875 -9.28125 L 8.6875 -3.484375 C 8.6875 -2.285156 8.378906 -1.378906 7.765625 -0.765625 C 7.148438 -0.160156 6.203125 0.140625 4.921875 0.140625 Z M 4.921875 0.140625 "/></g></g></g><g fill="#ffffff" fill-opacity="1"><g transform="translate(225.815691, 341.999978)"><g><path d="M 2.984375 0 L 1.203125 0 L 1.203125 -9.28125 L 3.3125 -9.28125 L 7.03125 -3.296875 L 7.203125 -3.328125 L 7.203125 -9.28125 L 8.96875 -9.28125 L 8.96875 0 L 7.078125 0 L 3.140625 -6.390625 L 2.984375 -6.359375 Z M 2.984375 0 "/></g></g></g><g fill="#ffffff" fill-opacity="1"><g transform="translate(235.987932, 341.999978)"><g><path d="M 4.546875 -9.28125 C 6.054688 -9.28125 7.207031 -8.890625 8 -8.109375 C 8.789062 -7.328125 9.1875 -6.171875 9.1875 -4.640625 C 9.1875 -3.109375 8.789062 -1.953125 8 -1.171875 C 7.207031 -0.390625 6.054688 0 4.546875 0 L 1.203125 0 L 1.203125 -9.28125 Z M 4.4375 -1.546875 C 5.394531 -1.546875 6.109375 -1.789062 6.578125 -2.28125 C 7.054688 -2.769531 7.296875 -3.554688 7.296875 -4.640625 C 7.296875 -5.722656 7.054688 -6.507812 6.578125 -7 C 6.109375 -7.488281 5.394531 -7.734375 4.4375 -7.734375 L 3.046875 -7.734375 L 3.046875 -1.546875 Z M 4.4375 -1.546875 "/></g></g></g></svg>