<svg xmlns="http://www.w3.org/2000/svg" xmlns:xlink="http://www.w3.org/1999/xlink" width="500" zoomAndPan="magnify" viewBox="0 0 375 374.999991" height="500" preserveAspectRatio="xMidYMid meet" version="1.0"><defs><g/></defs><path fill="#eb971b" d="M 177.609375 153.101562 C 161.734375 129.011719 156.996094 107.503906 160.941406 88.074219 C 163.9375 73.136719 170.917969 63.402344 181.890625 63.320312 C 196.1875 63.152344 204.167969 73.636719 210.152344 84.996094 C 222.832031 80.667969 235.796875 81.335938 249.054688 89.28125 C 239.664062 78.171875 228.109375 74.304688 214.433594 77.507812 C 212.105469 68.105469 207.078125 61.15625 199.347656 56.621094 C 179.148438 44.722656 158.574219 57.496094 152.382812 78.714844 C 146.730469 98.183594 149.472656 117.113281 155.996094 135.75 C 136.628906 129.054688 123.785156 119.277344 111.066406 109.417969 C 124.285156 129.886719 144.441406 145.777344 177.609375 153.101562 Z M 137.710938 100.179688 C 142.03125 100.179688 145.523438 103.71875 145.523438 108.003906 C 145.523438 112.328125 142.03125 115.824219 137.710938 115.824219 C 133.386719 115.824219 129.894531 112.328125 129.894531 108.003906 C 129.894531 103.71875 133.386719 100.179688 137.710938 100.179688 Z M 137.710938 100.179688 " fill-opacity="1" fill-rule="evenodd"/><path fill="#53b63e" d="M 180.0625 151.8125 C 192.988281 126.015625 209.199219 111.207031 227.984375 104.839844 C 242.40625 99.972656 254.335938 101.222656 259.90625 110.664062 C 267.179688 122.980469 262.105469 135.085938 255.25 145.984375 C 265.390625 154.804688 271.25 166.371094 271 181.847656 C 275.949219 168.160156 273.453125 156.222656 263.894531 145.945312 C 270.878906 139.246094 274.328125 131.382812 274.410156 122.398438 C 274.617188 98.972656 253.253906 87.535156 231.808594 92.773438 C 212.148438 97.601562 197.144531 109.457031 184.261719 124.4375 C 180.394531 104.300781 182.429688 88.28125 184.59375 72.304688 C 173.496094 93.980469 169.835938 119.402344 180.0625 151.8125 Z M 205.871094 90.777344 C 208.035156 94.523438 206.746094 99.308594 203.046875 101.46875 C 199.304688 103.632812 194.527344 102.34375 192.363281 98.601562 C 190.203125 94.855469 191.492188 90.070312 195.234375 87.90625 C 198.972656 85.785156 203.710938 87.035156 205.871094 90.777344 Z M 205.871094 90.777344 " fill-opacity="1" fill-rule="evenodd"/><path fill="#0088d2" d="M 182.390625 153.351562 C 211.191406 151.644531 232.140625 158.257812 246.976562 171.363281 C 258.410156 181.433594 263.3125 192.375 257.949219 201.941406 C 250.925781 214.425781 237.875 216.089844 225.074219 215.589844 C 222.457031 228.777344 215.390625 239.636719 201.882812 247.207031 C 216.179688 244.585938 225.324219 236.472656 229.398438 223.035156 C 238.664062 225.742188 247.226562 224.824219 255 220.414062 C 275.40625 208.847656 274.617188 184.59375 259.363281 168.660156 C 245.359375 154.015625 227.609375 146.941406 208.199219 143.28125 C 223.660156 129.84375 238.582031 123.605469 253.460938 117.488281 C 229.148438 118.695312 205.332031 128.222656 182.390625 153.351562 Z M 248.101562 145.195312 C 245.980469 148.941406 241.203125 150.1875 237.460938 148.066406 C 233.71875 145.902344 232.429688 141.117188 234.59375 137.375 C 236.753906 133.628906 241.535156 132.339844 245.273438 134.503906 C 249.015625 136.667969 250.261719 141.453125 248.101562 145.195312 Z M 248.101562 145.195312 " fill-opacity="1" fill-rule="evenodd"/><path fill="#6a419a" d="M 182.265625 156.097656 C 198.140625 180.183594 202.878906 201.695312 198.933594 221.121094 C 195.9375 236.058594 188.957031 245.792969 177.984375 245.875 C 163.6875 246 155.707031 235.558594 149.761719 224.199219 C 137.042969 228.527344 124.078125 227.863281 110.816406 219.914062 C 120.210938 231.023438 131.765625 234.851562 145.480469 231.691406 C 147.769531 241.09375 152.839844 248.039062 160.527344 252.574219 C 180.726562 264.472656 201.300781 251.699219 207.492188 230.484375 C 213.144531 211.011719 210.402344 192.082031 203.878906 173.445312 C 223.246094 180.144531 236.089844 189.917969 248.808594 199.78125 C 235.589844 179.3125 215.433594 163.417969 182.265625 156.097656 Z M 222.164062 209.015625 C 217.84375 209.015625 214.351562 205.480469 214.351562 201.195312 C 214.351562 196.867188 217.84375 193.371094 222.164062 193.371094 C 226.488281 193.371094 229.980469 196.867188 229.980469 201.195312 C 229.980469 205.480469 226.488281 209.015625 222.164062 209.015625 Z M 222.164062 209.015625 " fill-opacity="1" fill-rule="evenodd"/><path fill="#9b2989" d="M 179.8125 157.34375 C 166.886719 183.179688 150.675781 197.992188 131.890625 204.355469 C 117.46875 209.183594 105.539062 207.976562 99.96875 198.53125 C 92.695312 186.21875 97.765625 174.109375 104.625 163.210938 C 94.527344 154.390625 88.625 142.824219 88.871094 127.304688 C 83.96875 141.035156 86.421875 152.976562 95.980469 163.25 C 88.996094 169.949219 85.546875 177.8125 85.464844 186.757812 C 85.257812 210.222656 106.621094 221.664062 128.066406 216.421875 C 147.769531 211.59375 162.730469 199.738281 175.613281 184.761719 C 179.480469 204.898438 177.445312 220.914062 175.28125 236.890625 C 186.378906 215.214844 190.039062 189.792969 179.8125 157.34375 Z M 154.003906 218.417969 C 151.839844 214.671875 153.128906 209.890625 156.828125 207.726562 C 160.570312 205.5625 165.347656 206.851562 167.511719 210.597656 C 169.671875 214.339844 168.382812 219.125 164.640625 221.246094 C 160.902344 223.410156 156.164062 222.164062 154.003906 218.417969 Z M 154.003906 218.417969 " fill-opacity="1" fill-rule="evenodd"/><path fill="#dd2840" d="M 177.484375 155.847656 C 148.683594 157.550781 127.734375 150.9375 112.894531 137.832031 C 101.464844 127.722656 96.5625 116.820312 101.921875 107.253906 C 108.988281 94.773438 122 93.109375 134.800781 93.609375 C 137.417969 80.417969 144.484375 69.5625 157.992188 61.988281 C 143.695312 64.609375 134.550781 72.722656 130.476562 86.160156 C 121.210938 83.457031 112.648438 84.371094 104.875 88.78125 C 84.46875 100.347656 85.257812 124.601562 100.511719 140.535156 C 114.515625 155.179688 132.265625 162.253906 151.675781 165.914062 C 136.214844 179.351562 121.292969 185.59375 106.414062 191.707031 C 130.726562 190.503906 154.542969 180.976562 177.484375 155.847656 Z M 111.773438 164 C 113.933594 160.257812 118.671875 158.964844 122.414062 161.128906 C 126.15625 163.292969 127.445312 168.078125 125.28125 171.820312 C 123.121094 175.566406 118.339844 176.855469 114.601562 174.691406 C 110.902344 172.53125 109.613281 167.746094 111.773438 164 Z M 111.773438 164 " fill-opacity="1" fill-rule="evenodd"/><g fill="#333333" fill-opacity="1"><g transform="translate(97.408494, 321.949247)"><g><path d="M 26.203125 -9.859375 C 26.203125 -8.367188 25.90625 -6.988281 25.3125 -5.71875 C 24.71875 -4.445312 23.84375 -3.332031 22.6875 -2.375 C 20.414062 -0.457031 17.492188 0.5 13.921875 0.5 C 11.148438 0.5 8.640625 -0.0664062 6.390625 -1.203125 C 4.140625 -2.347656 2.488281 -3.878906 1.4375 -5.796875 L 5.84375 -8.078125 C 6.507812 -6.890625 7.554688 -5.972656 8.984375 -5.328125 C 10.421875 -4.679688 12.066406 -4.359375 13.921875 -4.359375 C 18.710938 -4.359375 21.109375 -6.191406 21.109375 -9.859375 C 21.109375 -10.554688 20.984375 -11.148438 20.734375 -11.640625 C 20.484375 -12.140625 20.113281 -12.601562 19.625 -13.03125 C 18.4375 -14.019531 16.304688 -14.910156 13.234375 -15.703125 C 11.378906 -16.171875 9.804688 -16.679688 8.515625 -17.234375 C 7.234375 -17.796875 6.160156 -18.457031 5.296875 -19.21875 C 3.222656 -20.90625 2.1875 -23.132812 2.1875 -25.90625 C 2.1875 -27.300781 2.457031 -28.597656 3 -29.796875 C 3.539062 -31.003906 4.304688 -32.054688 5.296875 -32.953125 C 6.328125 -33.835938 7.523438 -34.503906 8.890625 -34.953125 C 10.265625 -35.398438 11.773438 -35.625 13.421875 -35.625 C 15.835938 -35.625 18.0625 -35.160156 20.09375 -34.234375 C 22.125 -33.304688 23.664062 -32.003906 24.71875 -30.328125 L 20.703125 -27.84375 C 19.753906 -29 18.648438 -29.816406 17.390625 -30.296875 C 16.140625 -30.773438 14.816406 -31.015625 13.421875 -31.015625 C 12.429688 -31.015625 11.523438 -30.847656 10.703125 -30.515625 C 9.878906 -30.191406 9.1875 -29.796875 8.625 -29.328125 C 8.15625 -28.929688 7.8125 -28.441406 7.59375 -27.859375 C 7.382812 -27.285156 7.28125 -26.671875 7.28125 -26.015625 C 7.28125 -25.585938 7.347656 -25.148438 7.484375 -24.703125 C 7.617188 -24.253906 7.929688 -23.789062 8.421875 -23.3125 C 8.921875 -22.832031 9.648438 -22.367188 10.609375 -21.921875 C 11.566406 -21.472656 12.867188 -21.035156 14.515625 -20.609375 C 16.492188 -20.117188 18.160156 -19.582031 19.515625 -19 C 20.867188 -18.425781 22.007812 -17.738281 22.9375 -16.9375 C 25.113281 -15.15625 26.203125 -12.796875 26.203125 -9.859375 Z M 26.203125 -9.859375 "/></g></g></g><g fill="#333333" fill-opacity="1"><g transform="translate(128.473043, 321.949247)"><g><path d="M 2.96875 0 L 2.96875 -35.125 L 15.453125 -35.125 C 18.003906 -35.125 20.253906 -34.660156 22.203125 -33.734375 C 24.148438 -32.816406 25.773438 -31.5625 27.078125 -29.96875 C 28.378906 -28.382812 29.367188 -26.519531 30.046875 -24.375 C 30.722656 -22.226562 31.0625 -19.953125 31.0625 -17.546875 C 31.0625 -15.097656 30.707031 -12.804688 30 -10.671875 C 29.289062 -8.546875 28.304688 -6.6875 27.046875 -5.09375 C 25.796875 -3.507812 24.3125 -2.265625 22.59375 -1.359375 C 20.875 -0.453125 19.023438 0 17.046875 0 Z M 15.265625 -4.8125 C 17.140625 -4.8125 18.738281 -5.15625 20.0625 -5.84375 C 21.382812 -6.539062 22.472656 -7.46875 23.328125 -8.625 C 24.191406 -9.78125 24.820312 -11.132812 25.21875 -12.6875 C 25.613281 -14.238281 25.8125 -15.859375 25.8125 -17.546875 C 25.8125 -19.222656 25.613281 -20.847656 25.21875 -22.421875 C 24.820312 -23.992188 24.203125 -25.375 23.359375 -26.5625 C 22.515625 -27.75 21.421875 -28.695312 20.078125 -29.40625 C 18.742188 -30.113281 17.140625 -30.46875 15.265625 -30.46875 L 8.171875 -30.46875 L 8.171875 -4.8125 Z M 15.265625 -4.8125 "/></g></g></g><g fill="#333333" fill-opacity="1"><g transform="translate(164.392868, 321.949247)"><g><path d="M 16.9375 -35.125 C 18.332031 -35.125 19.640625 -34.859375 20.859375 -34.328125 C 22.078125 -33.804688 23.140625 -33.097656 24.046875 -32.203125 C 24.960938 -31.316406 25.679688 -30.269531 26.203125 -29.0625 C 26.734375 -27.851562 27 -26.554688 27 -25.171875 C 27 -23.785156 26.734375 -22.476562 26.203125 -21.25 C 25.679688 -20.03125 24.960938 -18.972656 24.046875 -18.078125 C 23.140625 -17.191406 22.078125 -16.488281 20.859375 -15.96875 C 19.640625 -15.457031 18.332031 -15.203125 16.9375 -15.203125 L 7.828125 -15.15625 L 7.828125 0 L 2.671875 0 L 2.671875 -35.125 Z M 16.9375 -20.015625 C 17.632812 -20.015625 18.285156 -20.15625 18.890625 -20.4375 C 19.503906 -20.71875 20.039062 -21.085938 20.5 -21.546875 C 20.96875 -22.015625 21.332031 -22.566406 21.59375 -23.203125 C 21.863281 -23.847656 22 -24.535156 22 -25.265625 C 22 -25.992188 21.863281 -26.671875 21.59375 -27.296875 C 21.332031 -27.921875 20.96875 -28.472656 20.5 -28.953125 C 20.039062 -29.429688 19.503906 -29.8125 18.890625 -30.09375 C 18.285156 -30.375 17.632812 -30.515625 16.9375 -30.515625 L 7.828125 -30.515625 L 7.828125 -20.015625 Z M 16.9375 -20.015625 "/></g></g></g><g fill="#333333" fill-opacity="1"><g transform="translate(195.556496, 321.949247)"><g><path d="M 2.28125 -16.203125 L 16.84375 -16.203125 L 16.84375 -12.9375 L 2.28125 -12.9375 Z M 2.28125 -16.203125 "/></g></g></g><g fill="#333333" fill-opacity="1"><g transform="translate(216.95999, 321.949247)"><g><path d="M 6.140625 -30.46875 L 1.4375 -30.46875 L 1.4375 -35.125 L 11.34375 -35.125 L 11.34375 0 L 6.140625 0 Z M 6.140625 -30.46875 "/></g></g></g><g fill="#333333" fill-opacity="1"><g transform="translate(234.102734, 321.949247)"><g><path d="M 14.125 0.5 C 12.40625 0.5 10.789062 0.09375 9.28125 -0.71875 C 7.78125 -1.53125 6.453125 -2.675781 5.296875 -4.15625 C 4.210938 -5.613281 3.351562 -7.28125 2.71875 -9.15625 C 2.09375 -11.039062 1.78125 -13.054688 1.78125 -15.203125 L 1.78125 -19.515625 C 1.78125 -21.898438 2.078125 -24.066406 2.671875 -26.015625 C 3.265625 -27.960938 4.09375 -29.644531 5.15625 -31.0625 C 6.207031 -32.519531 7.5 -33.632812 9.03125 -34.40625 C 10.570312 -35.1875 12.269531 -35.578125 14.125 -35.578125 C 15.9375 -35.578125 17.609375 -35.195312 19.140625 -34.4375 C 20.679688 -33.675781 21.984375 -32.566406 23.046875 -31.109375 C 24.097656 -29.691406 24.9375 -28 25.5625 -26.03125 C 26.1875 -24.070312 26.5 -21.898438 26.5 -19.515625 L 26.5 -15.203125 C 26.5 -12.929688 26.175781 -10.84375 25.53125 -8.9375 C 24.894531 -7.039062 24.03125 -5.382812 22.9375 -3.96875 C 21.8125 -2.539062 20.5 -1.4375 19 -0.65625 C 17.5 0.113281 15.875 0.5 14.125 0.5 Z M 6.84375 -15.203125 C 6.84375 -13.585938 7.039062 -12.085938 7.4375 -10.703125 C 7.832031 -9.316406 8.410156 -8.128906 9.171875 -7.140625 C 9.828125 -6.273438 10.578125 -5.601562 11.421875 -5.125 C 12.265625 -4.644531 13.164062 -4.40625 14.125 -4.40625 C 15.207031 -4.40625 16.195312 -4.671875 17.09375 -5.203125 C 17.988281 -5.734375 18.753906 -6.46875 19.390625 -7.40625 C 20.035156 -8.34375 20.539062 -9.472656 20.90625 -10.796875 C 21.269531 -12.117188 21.453125 -13.585938 21.453125 -15.203125 L 21.453125 -19.515625 C 21.453125 -23.285156 20.691406 -26.175781 19.171875 -28.1875 C 17.890625 -29.84375 16.207031 -30.671875 14.125 -30.671875 C 12.007812 -30.671875 10.304688 -29.828125 9.015625 -28.140625 C 7.566406 -26.191406 6.84375 -23.316406 6.84375 -19.515625 Z M 6.84375 -15.203125 "/></g></g></g></svg>